<svg width="480" height="331" viewBox="0 0 480 331" fill="none" xmlns="http://www.w3.org/2000/svg">
<mask id="mask0_105_15393" style="mask-type:alpha" maskUnits="userSpaceOnUse" x="-1" y="0" width="481" height="331">
<rect x="-1" width="481" height="331" fill="url(#paint0_linear_105_15393)"/>
</mask>
<g mask="url(#mask0_105_15393)">
<g clip-path="url(#clip0_105_15393)">
<rect x="4.51184" y="216.642" width="1.08498" height="68" fill="#80FFCC"/>
<rect x="-0.913086" y="230.163" width="12" height="40.565" fill="#80FFCC"/>
</g>
<g clip-path="url(#clip1_105_15393)">
<rect x="28.3815" y="156.15" width="1.08498" height="128" fill="#80FFCC"/>
<rect x="22.9565" y="181.77" width="12" height="76.86" fill="#80FFCC"/>
</g>
<g clip-path="url(#clip2_105_15393)">
<rect x="52.251" y="166.825" width="1.08498" height="39" fill="#80FFCC"/>
<rect x="46.826" y="174.653" width="12" height="23.485" fill="#80FFCC"/>
</g>
<g clip-path="url(#clip3_105_15393)">
<rect x="76.1206" y="109.892" width="1.08498" height="110" fill="#80FFCC"/>
<rect x="70.6957" y="131.953" width="12" height="66.185" fill="#80FFCC"/>
</g>
<g clip-path="url(#clip4_105_15393)">
<rect x="96.7351" y="113.45" width="1.62747" height="75" fill="#80FFCC"/>
<rect x="88.5978" y="128.395" width="18" height="44.835" fill="#80FFCC"/>
</g>
<g clip-path="url(#clip5_105_15393)">
<rect x="114.637" y="188.175" width="1.62747" height="114" fill="#F27B7B"/>
<rect x="106.5" y="210.948" width="18" height="68.32" fill="#F27B7B"/>
</g>
<g clip-path="url(#clip6_105_15393)">
<rect x="138.507" y="220.2" width="1.62747" height="110" fill="#80FFCC"/>
<rect x="130.37" y="242.262" width="18" height="66.185" fill="#80FFCC"/>
</g>
<g clip-path="url(#clip7_105_15393)">
<rect x="159.664" y="181.058" width="1.08498" height="82" fill="#80FFCC"/>
<rect x="154.239" y="197.427" width="12" height="49.105" fill="#80FFCC"/>
</g>
<g clip-path="url(#clip8_105_15393)">
<rect x="180.279" y="166.825" width="1.62747" height="53" fill="#80FFCC"/>
<rect x="172.141" y="177.5" width="18" height="32.025" fill="#80FFCC"/>
</g>
<g clip-path="url(#clip9_105_15393)">
<rect x="207.403" y="127.683" width="1.08498" height="75" fill="#80FFCC"/>
<rect x="201.978" y="142.628" width="12" height="44.835" fill="#80FFCC"/>
</g>
<g clip-path="url(#clip10_105_15393)">
<rect x="231.273" y="124.125" width="1.08498" height="18" fill="#80FFCC"/>
<rect x="225.848" y="127.683" width="12" height="10.675" fill="#80FFCC"/>
</g>
<g clip-path="url(#clip11_105_15393)">
<rect x="251.887" y="52.9584" width="1.62747" height="96" fill="#80FFCC"/>
<rect x="243.75" y="72.1733" width="18" height="57.645" fill="#80FFCC"/>
</g>
<g clip-path="url(#clip12_105_15393)">
<rect x="275.757" y="81.425" width="1.62747" height="68" fill="#F27B7B"/>
<rect x="267.62" y="94.9468" width="18" height="40.565" fill="#F27B7B"/>
</g>
<g clip-path="url(#clip13_105_15393)">
<rect x="299.627" y="117.008" width="1.62747" height="103" fill="#F27B7B"/>
<rect x="291.489" y="137.647" width="18" height="61.915" fill="#F27B7B"/>
</g>
<g clip-path="url(#clip14_105_15393)">
<rect x="323.496" y="170.383" width="1.62747" height="28" fill="#80FFCC"/>
<rect x="315.359" y="176.077" width="18" height="17.08" fill="#80FFCC"/>
</g>
<g clip-path="url(#clip15_105_15393)">
<rect x="344.653" y="109.892" width="1.08498" height="89" fill="#80FFCC"/>
<rect x="339.228" y="127.683" width="12" height="53.375" fill="#80FFCC"/>
</g>
<g clip-path="url(#clip16_105_15393)">
<rect x="368.523" y="67.1917" width="1.08498" height="82" fill="#80FFCC"/>
<rect x="363.098" y="83.5599" width="12" height="49.105" fill="#80FFCC"/>
</g>
<g clip-path="url(#clip17_105_15393)">
<rect x="392.392" y="63.6333" width="1.08498" height="135" fill="#F27B7B"/>
<rect x="386.967" y="90.6766" width="12" height="81.13" fill="#F27B7B"/>
</g>
<g clip-path="url(#clip18_105_15393)">
<rect x="416.262" y="38.725" width="1.08498" height="57" fill="#80FFCC"/>
<rect x="410.837" y="50.1117" width="12" height="34.16" fill="#80FFCC"/>
</g>
<g clip-path="url(#clip19_105_15393)">
<rect x="436.876" y="-0.416626" width="1.62747" height="96" fill="#80FFCC"/>
<rect x="428.739" y="18.7983" width="18" height="57.645" fill="#80FFCC"/>
</g>
<g clip-path="url(#clip20_105_15393)">
<rect x="460.746" y="10.2583" width="1.62747" height="18" fill="#80FFCC"/>
<rect x="452.609" y="13.8167" width="18" height="10.675" fill="#80FFCC"/>
</g>
<g clip-path="url(#clip21_105_15393)">
<rect x="476.478" y="10.9701" width="18" height="34.16" fill="#80FFCC"/>
</g>
<path d="M-8 271.775C6.88582 263.361 43.4801 236.318 77.4445 188.632C78.5156 187.128 80.9146 187.78 81.1478 189.611C93.2112 284.332 125.827 299.257 143.5 298.275C161.112 297.296 190.212 160.374 250.003 128.243C252.103 127.115 254.649 128.299 255.393 130.564C276.513 194.86 288.341 196.807 304 198.275C317.704 199.56 356.715 160.865 369.516 139.994C370.651 138.143 375.143 138.591 375.639 140.704C382.598 170.371 386.019 173.319 396.5 173.775C408 174.275 401.5 75.7749 421.5 75.2749C439.476 74.8255 458.665 47.3122 462.727 30.1311C463.154 28.3215 466.19 27.1182 467.851 27.955C471.865 29.978 478.456 31.7908 488 31.2749" stroke="#80B3FF" stroke-width="2"/>
<path d="M-5.5 259.775C19 234.608 70.2 183.775 79 181.775C90 179.275 88.5 325.775 139.5 288.775C190.5 251.775 153.5 203.275 210 167.775C238.5 127.275 244.5 113.775 253 115.775C261.5 117.775 278.5 194.775 301.5 201.275C324.5 207.775 321.5 172.275 346.5 165.275C363.5 145.775 360 118.775 368.5 125.275C377 131.775 381.5 172.775 393 170.275C404.5 167.775 394.5 89.7749 417.5 78.2749C440.5 66.7749 458 34.2749 465.5 23.2749C471.5 14.4749 482 21.2749 486.5 25.7749" stroke="#FBFF80" stroke-width="2"/>
</g>
<defs>
<linearGradient id="paint0_linear_105_15393" x1="239.5" y1="0" x2="239.5" y2="331" gradientUnits="userSpaceOnUse">
<stop stop-color="#D9D9D9"/>
<stop offset="1" stop-color="#D9D9D9" stop-opacity="0"/>
</linearGradient>
<clipPath id="clip0_105_15393">
<path d="M-0.913086 218.642C-0.913086 217.537 -0.0176553 216.642 1.08691 216.642H9.0217C10.1263 216.642 11.0217 217.537 11.0217 218.642V284.25H-0.913086V218.642Z" fill="white"/>
</clipPath>
<clipPath id="clip1_105_15393">
<path d="M22.9565 158.15C22.9565 157.045 23.852 156.15 24.9565 156.15H32.8913C33.9959 156.15 34.8913 157.045 34.8913 158.15V284.25H22.9565V158.15Z" fill="white"/>
</clipPath>
<clipPath id="clip2_105_15393">
<path d="M46.826 168.825C46.826 167.72 47.7215 166.825 48.826 166.825H56.7608C57.8654 166.825 58.7608 167.72 58.7608 168.825V205.967H46.826V168.825Z" fill="white"/>
</clipPath>
<clipPath id="clip3_105_15393">
<path d="M70.6957 111.892C70.6957 110.787 71.5911 109.892 72.6957 109.892H80.6305C81.735 109.892 82.6305 110.787 82.6305 111.892V220.2H70.6957V111.892Z" fill="white"/>
</clipPath>
<clipPath id="clip4_105_15393">
<path d="M88.5978 115.45C88.5978 114.345 89.4932 113.45 90.5978 113.45H104.5C105.605 113.45 106.5 114.345 106.5 115.45V188.175H88.5978V115.45Z" fill="white"/>
</clipPath>
<clipPath id="clip5_105_15393">
<path d="M106.5 190.175C106.5 189.07 107.395 188.175 108.5 188.175H122.402C123.507 188.175 124.402 189.07 124.402 190.175V302.042H106.5V190.175Z" fill="white"/>
</clipPath>
<clipPath id="clip6_105_15393">
<path d="M130.37 222.2C130.37 221.095 131.265 220.2 132.37 220.2H146.272C147.376 220.2 148.272 221.095 148.272 222.2V330.508H130.37V222.2Z" fill="white"/>
</clipPath>
<clipPath id="clip7_105_15393">
<path d="M154.239 183.058C154.239 181.954 155.135 181.058 156.239 181.058H164.174C165.278 181.058 166.174 181.954 166.174 183.058V262.9H154.239V183.058Z" fill="white"/>
</clipPath>
<clipPath id="clip8_105_15393">
<path d="M172.141 168.825C172.141 167.72 173.037 166.825 174.141 166.825H188.044C189.148 166.825 190.044 167.72 190.044 168.825V220.2H172.141V168.825Z" fill="white"/>
</clipPath>
<clipPath id="clip9_105_15393">
<path d="M201.978 129.683C201.978 128.579 202.874 127.683 203.978 127.683H211.913C213.018 127.683 213.913 128.579 213.913 129.683V202.408H201.978V129.683Z" fill="white"/>
</clipPath>
<clipPath id="clip10_105_15393">
<path d="M225.848 126.125C225.848 125.02 226.743 124.125 227.848 124.125H235.782C236.887 124.125 237.782 125.02 237.782 126.125V141.917H225.848V126.125Z" fill="white"/>
</clipPath>
<clipPath id="clip11_105_15393">
<path d="M243.75 54.9584C243.75 53.8538 244.645 52.9584 245.75 52.9584H259.652C260.757 52.9584 261.652 53.8538 261.652 54.9584V149.033H243.75V54.9584Z" fill="white"/>
</clipPath>
<clipPath id="clip12_105_15393">
<path d="M267.62 83.425C267.62 82.3205 268.515 81.425 269.62 81.425H283.522C284.626 81.425 285.522 82.3205 285.522 83.425V149.033H267.62V83.425Z" fill="white"/>
</clipPath>
<clipPath id="clip13_105_15393">
<path d="M291.489 119.008C291.489 117.904 292.385 117.008 293.489 117.008H307.391C308.496 117.008 309.391 117.904 309.391 119.008V220.2H291.489V119.008Z" fill="white"/>
</clipPath>
<clipPath id="clip14_105_15393">
<path d="M315.359 172.383C315.359 171.279 316.254 170.383 317.359 170.383H331.261C332.365 170.383 333.261 171.279 333.261 172.383V198.85H315.359V172.383Z" fill="white"/>
</clipPath>
<clipPath id="clip15_105_15393">
<path d="M339.228 111.892C339.228 110.787 340.124 109.892 341.228 109.892H349.163C350.268 109.892 351.163 110.787 351.163 111.892V198.85H339.228V111.892Z" fill="white"/>
</clipPath>
<clipPath id="clip16_105_15393">
<path d="M363.098 69.1917C363.098 68.0871 363.993 67.1917 365.098 67.1917H373.033C374.137 67.1917 375.033 68.0871 375.033 69.1917V149.033H363.098V69.1917Z" fill="white"/>
</clipPath>
<clipPath id="clip17_105_15393">
<path d="M386.967 65.6333C386.967 64.5287 387.863 63.6333 388.967 63.6333H396.902C398.007 63.6333 398.902 64.5287 398.902 65.6333V198.85H386.967V65.6333Z" fill="white"/>
</clipPath>
<clipPath id="clip18_105_15393">
<path d="M410.837 40.725C410.837 39.6204 411.732 38.725 412.837 38.725H420.772C421.876 38.725 422.772 39.6204 422.772 40.725V95.6583H410.837V40.725Z" fill="white"/>
</clipPath>
<clipPath id="clip19_105_15393">
<path d="M428.739 1.58338C428.739 0.478808 429.635 -0.416626 430.739 -0.416626H444.641C445.746 -0.416626 446.641 0.478805 446.641 1.58337V95.6584H428.739V1.58338Z" fill="white"/>
</clipPath>
<clipPath id="clip20_105_15393">
<path d="M452.609 12.2583C452.609 11.1537 453.504 10.2583 454.609 10.2583H468.511C469.616 10.2583 470.511 11.1537 470.511 12.2583V28.05H452.609V12.2583Z" fill="white"/>
</clipPath>
<clipPath id="clip21_105_15393">
<path d="M476.478 1.58337C476.478 0.478803 477.374 -0.416626 478.478 -0.416626H492.38C493.485 -0.416626 494.38 0.478804 494.38 1.58337V56.5167H476.478V1.58337Z" fill="white"/>
</clipPath>
</defs>
</svg>
