<svg width="480" height="297" viewBox="0 0 480 297" fill="none" xmlns="http://www.w3.org/2000/svg">
<mask id="mask0_105_15428" style="mask-type:alpha" maskUnits="userSpaceOnUse" x="0" y="0" width="481" height="297">
<rect width="481" height="297" fill="url(#paint0_linear_105_15428)"/>
</mask>
<g mask="url(#mask0_105_15428)">
<g clip-path="url(#clip0_105_15428)">
<rect x="2.26982" y="175.2" width="1.22569" height="23" fill="#80FFCC"/>
<rect x="-3.85864" y="179.76" width="13" height="13.68" fill="#80FFCC"/>
</g>
<g clip-path="url(#clip1_105_15428)">
<rect x="29.235" y="144.8" width="1.22569" height="53" fill="#80FFCC"/>
<rect x="23.1066" y="155.44" width="13" height="31.92" fill="#80FFCC"/>
</g>
<g clip-path="url(#clip2_105_15428)">
<rect x="56.2002" y="129.6" width="1.22569" height="68" fill="#80FFCC"/>
<rect x="50.0718" y="143.28" width="13" height="41.04" fill="#80FFCC"/>
</g>
<g clip-path="url(#clip3_105_15428)">
<rect x="79.4883" y="118.2" width="1.83854" height="34" fill="#80FFCC"/>
<rect x="70.2957" y="125.04" width="20" height="20.52" fill="#80FFCC"/>
</g>
<g clip-path="url(#clip4_105_15428)">
<rect x="106.454" y="49.8" width="1.83854" height="106" fill="#80FFCC"/>
<rect x="97.2609" y="71.0801" width="20" height="63.84" fill="#80FFCC"/>
</g>
<g clip-path="url(#clip5_105_15428)">
<rect x="133.419" y="65" width="1.83854" height="99" fill="#F27B7B"/>
<rect x="124.226" y="84.76" width="20" height="59.28" fill="#F27B7B"/>
</g>
<g clip-path="url(#clip6_105_15428)">
<rect x="160.384" y="114.4" width="1.83854" height="167" fill="#F27B7B"/>
<rect x="151.191" y="147.84" width="20" height="100.32" fill="#F27B7B"/>
</g>
<g clip-path="url(#clip7_105_15428)">
<rect x="184.285" y="175.2" width="1.22569" height="72" fill="#80FFCC"/>
<rect x="178.156" y="189.64" width="13" height="43.32" fill="#80FFCC"/>
</g>
<g clip-path="url(#clip8_105_15428)">
<rect x="211.25" y="110.6" width="1.22569" height="137" fill="#80FFCC"/>
<rect x="205.122" y="137.96" width="13" height="82.08" fill="#80FFCC"/>
</g>
<g clip-path="url(#clip9_105_15428)">
<rect x="238.215" y="122" width="1.22569" height="42" fill="#80FFCC"/>
<rect x="232.087" y="130.36" width="13" height="25.08" fill="#80FFCC"/>
</g>
<g clip-path="url(#clip10_105_15428)">
<rect x="265.181" y="61.2001" width="1.22569" height="118" fill="#80FFCC"/>
<rect x="259.052" y="84.7601" width="13" height="70.68" fill="#80FFCC"/>
</g>
<g clip-path="url(#clip11_105_15428)">
<rect x="288.469" y="65" width="1.83854" height="80" fill="#80FFCC"/>
<rect x="279.276" y="80.96" width="20" height="47.88" fill="#80FFCC"/>
</g>
<g clip-path="url(#clip12_105_15428)">
<rect x="335.658" y="179" width="1.83854" height="118" fill="#80FFCC"/>
<rect x="326.465" y="202.56" width="20" height="70.68" fill="#80FFCC"/>
</g>
<g clip-path="url(#clip13_105_15428)">
<rect x="359.559" y="137.2" width="1.22569" height="87" fill="#80FFCC"/>
<rect x="353.43" y="154.68" width="13" height="52.44" fill="#80FFCC"/>
</g>
<g clip-path="url(#clip14_105_15428)">
<rect x="382.847" y="122" width="1.83854" height="57" fill="#80FFCC"/>
<rect x="373.654" y="133.4" width="20" height="34.2" fill="#80FFCC"/>
</g>
<g clip-path="url(#clip15_105_15428)">
<rect x="413.489" y="80.2001" width="1.22569" height="80" fill="#80FFCC"/>
<rect x="407.361" y="96.16" width="13" height="47.88" fill="#80FFCC"/>
</g>
<g clip-path="url(#clip16_105_15428)">
<rect x="440.454" y="76.4" width="1.22569" height="19" fill="#80FFCC"/>
<rect x="434.326" y="80.2001" width="13" height="11.4" fill="#80FFCC"/>
</g>
<g clip-path="url(#clip17_105_15428)">
<rect x="463.743" y="0.400024" width="1.83854" height="103" fill="#80FFCC"/>
<rect x="454.55" y="20.92" width="20" height="61.56" fill="#80FFCC"/>
</g>
<g clip-path="url(#clip18_105_15428)">
<rect x="308.693" y="144.8" width="1.83854" height="122" fill="#F27B7B"/>
<rect x="299.5" y="169.12" width="20" height="72.96" fill="#F27B7B"/>
</g>
</g>
<defs>
<linearGradient id="paint0_linear_105_15428" x1="240.5" y1="0" x2="240.5" y2="297" gradientUnits="userSpaceOnUse">
<stop stop-color="#D9D9D9"/>
<stop offset="1" stop-color="#D9D9D9" stop-opacity="0"/>
</linearGradient>
<clipPath id="clip0_105_15428">
<path d="M-3.85864 177.2C-3.85864 176.096 -2.96321 175.2 -1.85864 175.2H7.62397C8.72854 175.2 9.62397 176.096 9.62397 177.2V198H-3.85864V177.2Z" fill="white"/>
</clipPath>
<clipPath id="clip1_105_15428">
<path d="M23.1066 146.8C23.1066 145.695 24.002 144.8 25.1066 144.8H34.5892C35.6937 144.8 36.5892 145.695 36.5892 146.8V198H23.1066V146.8Z" fill="white"/>
</clipPath>
<clipPath id="clip2_105_15428">
<path d="M50.0718 131.6C50.0718 130.495 50.9672 129.6 52.0718 129.6H61.5544C62.659 129.6 63.5544 130.495 63.5544 131.6V198H50.0718V131.6Z" fill="white"/>
</clipPath>
<clipPath id="clip3_105_15428">
<path d="M70.2957 120.2C70.2957 119.096 71.1911 118.2 72.2957 118.2H88.5196C89.6241 118.2 90.5196 119.096 90.5196 120.2V152.4H70.2957V120.2Z" fill="white"/>
</clipPath>
<clipPath id="clip4_105_15428">
<path d="M97.2609 51.8001C97.2609 50.6955 98.1563 49.8 99.2609 49.8H115.485C116.589 49.8 117.485 50.6955 117.485 51.8V156.2H97.2609V51.8001Z" fill="white"/>
</clipPath>
<clipPath id="clip5_105_15428">
<path d="M124.226 67C124.226 65.8954 125.122 65 126.226 65H142.45C143.555 65 144.45 65.8954 144.45 67V163.8H124.226V67Z" fill="white"/>
</clipPath>
<clipPath id="clip6_105_15428">
<path d="M151.191 116.4C151.191 115.295 152.087 114.4 153.191 114.4H169.415C170.52 114.4 171.415 115.295 171.415 116.4V281.6H151.191V116.4Z" fill="white"/>
</clipPath>
<clipPath id="clip7_105_15428">
<path d="M178.156 177.2C178.156 176.096 179.052 175.2 180.156 175.2H189.639C190.744 175.2 191.639 176.096 191.639 177.2V247.4H178.156V177.2Z" fill="white"/>
</clipPath>
<clipPath id="clip8_105_15428">
<path d="M205.122 112.6C205.122 111.495 206.017 110.6 207.122 110.6H216.604C217.709 110.6 218.604 111.495 218.604 112.6V247.4H205.122V112.6Z" fill="white"/>
</clipPath>
<clipPath id="clip9_105_15428">
<path d="M232.087 124C232.087 122.895 232.982 122 234.087 122H243.57C244.674 122 245.57 122.895 245.57 124V163.8H232.087V124Z" fill="white"/>
</clipPath>
<clipPath id="clip10_105_15428">
<path d="M259.052 63.2001C259.052 62.0955 259.948 61.2001 261.052 61.2001H270.535C271.639 61.2001 272.535 62.0955 272.535 63.2001V179H259.052V63.2001Z" fill="white"/>
</clipPath>
<clipPath id="clip11_105_15428">
<path d="M279.276 67C279.276 65.8954 280.172 65 281.276 65H297.5C298.605 65 299.5 65.8954 299.5 67V144.8H279.276V67Z" fill="white"/>
</clipPath>
<clipPath id="clip12_105_15428">
<path d="M326.465 181C326.465 179.896 327.361 179 328.465 179H344.689C345.794 179 346.689 179.896 346.689 181V296.8H326.465V181Z" fill="white"/>
</clipPath>
<clipPath id="clip13_105_15428">
<path d="M353.43 139.2C353.43 138.096 354.326 137.2 355.43 137.2H364.913C366.018 137.2 366.913 138.096 366.913 139.2V224.6H353.43V139.2Z" fill="white"/>
</clipPath>
<clipPath id="clip14_105_15428">
<path d="M373.654 124C373.654 122.895 374.55 122 375.654 122H391.878C392.983 122 393.878 122.895 393.878 124V179H373.654V124Z" fill="white"/>
</clipPath>
<clipPath id="clip15_105_15428">
<path d="M407.361 82.2001C407.361 81.0955 408.256 80.2001 409.361 80.2001H418.843C419.948 80.2001 420.843 81.0955 420.843 82.2001V160H407.361V82.2001Z" fill="white"/>
</clipPath>
<clipPath id="clip16_105_15428">
<path d="M434.326 78.4C434.326 77.2955 435.221 76.4 436.326 76.4H445.809C446.913 76.4 447.809 77.2955 447.809 78.4V95.4H434.326V78.4Z" fill="white"/>
</clipPath>
<clipPath id="clip17_105_15428">
<path d="M454.55 2.40002C454.55 1.29545 455.445 0.400024 456.55 0.400024H472.774C473.879 0.400024 474.774 1.29545 474.774 2.40002V103H454.55V2.40002Z" fill="white"/>
</clipPath>
<clipPath id="clip18_105_15428">
<path d="M299.5 146.8C299.5 145.695 300.395 144.8 301.5 144.8H317.724C318.828 144.8 319.724 145.695 319.724 146.8V266.4H299.5V146.8Z" fill="white"/>
</clipPath>
</defs>
</svg>
