<svg width="1em" height="1em" viewBox="0 0 20 20" fill="none" xmlns="http://www.w3.org/2000/svg">
  <path d="M6.03329 1.66663H4.44996C2.62496 1.66663 1.66663 2.62496 1.66663 4.44163V6.02496C1.66663 7.84163 2.62496 8.79996 4.44163 8.79996H6.02496C7.84163 8.79996 8.79996 7.84163 8.79996 6.02496V4.44163C8.80829 2.62496 7.84996 1.66663 6.03329 1.66663Z" fill="currentColor" />
  <path d="M15.5583 1.66663H13.975C12.1583 1.66663 11.2 2.62496 11.2 4.44163V6.02496C11.2 7.84163 12.1583 8.79996 13.975 8.79996H15.5583C17.375 8.79996 18.3333 7.84163 18.3333 6.02496V4.44163C18.3333 2.62496 17.375 1.66663 15.5583 1.66663Z" fill="currentColor" />
  <path d="M15.5583 11.1916H13.975C12.1583 11.1916 11.2 12.15 11.2 13.9666V15.55C11.2 17.3666 12.1583 18.325 13.975 18.325H15.5583C17.375 18.325 18.3333 17.3666 18.3333 15.55V13.9666C18.3333 12.15 17.375 11.1916 15.5583 11.1916Z" fill="currentColor" />
  <path d="M6.03329 11.1916H4.44996C2.62496 11.1916 1.66663 12.15 1.66663 13.9666V15.55C1.66663 17.375 2.62496 18.3333 4.44163 18.3333H6.02496C7.84163 18.3333 8.79996 17.375 8.79996 15.5583V13.975C8.80829 12.15 7.84996 11.1916 6.03329 11.1916Z" fill="currentColor" />
</svg>