<svg width="1em" height="1em" viewBox="0 0 20 20" fill="none" xmlns="http://www.w3.org/2000/svg">
  <path d="M17.5 18.9584H2.5C2.15833 18.9584 1.875 18.675 1.875 18.3334C1.875 17.9917 2.15833 17.7084 2.5 17.7084H17.5C17.8417 17.7084 18.125 17.9917 18.125 18.3334C18.125 18.675 17.8417 18.9584 17.5 18.9584Z" fill="currentColor" />
  <path d="M4.66667 6.98335H3.33333C2.875 6.98335 2.5 7.35835 2.5 7.81669V15C2.5 15.4584 2.875 15.8334 3.33333 15.8334H4.66667C5.125 15.8334 5.5 15.4584 5.5 15V7.81669C5.5 7.35002 5.125 6.98335 4.66667 6.98335Z" fill="currentColor" />
  <path d="M10.6667 4.32502H9.33333C8.875 4.32502 8.5 4.70002 8.5 5.15835V15C8.5 15.4584 8.875 15.8334 9.33333 15.8334H10.6667C11.125 15.8334 11.5 15.4584 11.5 15V5.15835C11.5 4.70002 11.125 4.32502 10.6667 4.32502Z" fill="currentColor" />
  <path d="M16.6667 1.66669H15.3333C14.875 1.66669 14.5 2.04169 14.5 2.50002V15C14.5 15.4584 14.875 15.8334 15.3333 15.8334H16.6667C17.125 15.8334 17.5 15.4584 17.5 15V2.50002C17.5 2.04169 17.125 1.66669 16.6667 1.66669Z" fill="currentColor" />
</svg>