<svg width="1em" height="1em" viewBox="0 0 20 20" fill="none" xmlns="http://www.w3.org/2000/svg">
  <path d="M13.3334 10.75V14.25C13.3334 17.1666 12.1667 18.3333 9.25002 18.3333H5.75002C2.83335 18.3333 1.66669 17.1666 1.66669 14.25V10.75C1.66669 7.83329 2.83335 6.66663 5.75002 6.66663H9.25002C12.1667 6.66663 13.3334 7.83329 13.3334 10.75Z" fill="currentColor" />
  <path d="M14.25 1.66663H10.75C8.18079 1.66663 6.97583 2.57837 6.7248 4.78247C6.67229 5.24358 7.05418 5.62496 7.51827 5.62496H9.25002C12.75 5.62496 14.375 7.24996 14.375 10.75V12.4817C14.375 12.9458 14.7564 13.3277 15.2175 13.2752C17.4216 13.0241 18.3334 11.8192 18.3334 9.24996V5.74996C18.3334 2.83329 17.1667 1.66663 14.25 1.66663Z" fill="currentColor" />
</svg>