<svg width="1em" height="1em" viewBox="0 0 20 20" fill="none" xmlns="http://www.w3.org/2000/svg">
  <path d="M12.475 10.625H7.94163V12.9833H12.475C13.2666 12.9833 13.9166 12.45 13.9166 11.8C13.9166 11.15 13.2666 10.625 12.475 10.625Z" fill="currentColor" />
  <path d="M9.99996 1.66663C5.39996 1.66663 1.66663 5.39996 1.66663 9.99996C1.66663 14.6 5.39996 18.3333 9.99996 18.3333C14.6 18.3333 18.3333 14.6 18.3333 9.99996C18.3333 5.39996 14.6 1.66663 9.99996 1.66663ZM12.475 14.2333H11.1V15.4166C11.1 15.7583 10.8166 16.0416 10.475 16.0416C10.1333 16.0416 9.84996 15.7583 9.84996 15.4166V14.2333H8.84163V15.4166C8.84163 15.7583 8.55829 16.0416 8.21663 16.0416C7.87496 16.0416 7.59163 15.7583 7.59163 15.4166V14.2333H5.87496C5.53329 14.2333 5.24996 13.95 5.24996 13.6083C5.24996 13.2666 5.53329 12.9833 5.87496 12.9833H6.69163V7.01663H5.87496C5.53329 7.01663 5.24996 6.73329 5.24996 6.39163C5.24996 6.04996 5.53329 5.76663 5.87496 5.76663H7.59163V4.58329C7.59163 4.24163 7.87496 3.95829 8.21663 3.95829C8.55829 3.95829 8.84163 4.24163 8.84163 4.58329V5.76663H9.84996V4.58329C9.84996 4.24163 10.1333 3.95829 10.475 3.95829C10.8166 3.95829 11.1 4.24163 11.1 4.58329V5.76663H11.8333C13.125 5.76663 14.2666 6.89996 14.2666 8.19996C14.2666 8.75829 14.0666 9.26663 13.75 9.68329C14.5916 10.0916 15.1666 10.8916 15.1666 11.8166C15.1666 13.1416 13.9583 14.2333 12.475 14.2333Z" fill="currentColor" />
  <path d="M13.0166 8.19163C13.0166 7.64163 12.5 7.00829 11.8333 7.00829H7.94163V9.36663H11.8333C12.4833 9.37496 13.0166 8.84163 13.0166 8.19163Z" fill="currentColor" />
</svg>