<svg width="1em" height="1em" viewBox="0 0 20 20" fill="none" xmlns="http://www.w3.org/2000/svg">
  <path d="M9.37502 15.2083H7.50002C6.58336 15.2083 5.83336 15.9583 5.83336 16.875V17.0833H5.00002C4.65836 17.0833 4.37502 17.3666 4.37502 17.7083C4.37502 18.05 4.65836 18.3333 5.00002 18.3333H15C15.3417 18.3333 15.625 18.05 15.625 17.7083C15.625 17.3666 15.3417 17.0833 15 17.0833H14.1667V16.875C14.1667 15.9583 13.4167 15.2083 12.5 15.2083H10.625V13.3C10.4167 13.325 10.2084 13.3333 10 13.3333C9.79169 13.3333 9.58336 13.325 9.37502 13.3V15.2083Z" fill="currentColor" />
  <path d="M15.4 9.69996C15.95 9.49163 16.4334 9.14996 16.8167 8.76663C17.5917 7.90829 18.1 6.88329 18.1 5.68329C18.1 4.48329 17.1584 3.54163 15.9584 3.54163H15.4917C14.95 2.43329 13.8167 1.66663 12.5 1.66663H7.50002C6.18336 1.66663 5.05002 2.43329 4.50836 3.54163H4.04169C2.84169 3.54163 1.90002 4.48329 1.90002 5.68329C1.90002 6.88329 2.40836 7.90829 3.18336 8.76663C3.56669 9.14996 4.05002 9.49163 4.60002 9.69996C5.46669 11.8333 7.55002 13.3333 10 13.3333C12.45 13.3333 14.5334 11.8333 15.4 9.69996ZM12.3667 7.04163L11.85 7.67496C11.7667 7.76663 11.7084 7.94996 11.7167 8.07496L11.7667 8.89163C11.8 9.39163 11.4417 9.64996 10.975 9.46663L10.2167 9.16663C10.1 9.12496 9.90002 9.12496 9.78336 9.16663L9.02502 9.46663C8.55836 9.64996 8.20002 9.39163 8.23336 8.89163L8.28336 8.07496C8.29169 7.94996 8.23336 7.76663 8.15002 7.67496L7.63336 7.04163C7.30836 6.65829 7.45002 6.23329 7.93336 6.10829L8.72502 5.90829C8.85002 5.87496 9.00002 5.75829 9.06669 5.64996L9.50836 4.96663C9.78336 4.54163 10.2167 4.54163 10.4917 4.96663L10.9334 5.64996C11 5.75829 11.15 5.87496 11.275 5.90829L12.0667 6.10829C12.55 6.23329 12.6917 6.65829 12.3667 7.04163Z" fill="currentColor" />
</svg>