<svg width="1em" height="1em" viewBox="0 0 20 20" fill="none" xmlns="http://www.w3.org/2000/svg">
  <path d="M18.2666 13.9583C17.9916 16.175 16.175 17.9916 13.9583 18.2666C12.6166 18.4333 11.3666 18.0666 10.3916 17.35C9.83329 16.9416 9.96663 16.075 10.6333 15.875C13.1416 15.1166 15.1166 13.1333 15.8833 10.625C16.0833 9.96663 16.95 9.83329 17.3583 10.3833C18.0666 11.3666 18.4333 12.6166 18.2666 13.9583Z" fill="currentColor" />
  <path d="M8.32496 1.66663C4.64996 1.66663 1.66663 4.64996 1.66663 8.32496C1.66663 12 4.64996 14.9833 8.32496 14.9833C12 14.9833 14.9833 12 14.9833 8.32496C14.975 4.64996 12 1.66663 8.32496 1.66663ZM7.54163 7.39163L9.54996 8.09163C10.275 8.34996 10.625 8.85829 10.625 9.64163C10.625 10.5416 9.90829 11.2833 9.03329 11.2833H8.95829V11.325C8.95829 11.6666 8.67496 11.95 8.33329 11.95C7.99163 11.95 7.70829 11.6666 7.70829 11.325V11.275C6.78329 11.2333 6.04163 10.4583 6.04163 9.49163C6.04163 9.14996 6.32496 8.86663 6.66663 8.86663C7.00829 8.86663 7.29163 9.14996 7.29163 9.49163C7.29163 9.79163 7.50829 10.0333 7.77496 10.0333H9.02496C9.21663 10.0333 9.36663 9.85829 9.36663 9.64163C9.36663 9.34996 9.31663 9.33329 9.12496 9.26663L7.11663 8.56663C6.39996 8.31663 6.04163 7.80829 6.04163 7.01663C6.04163 6.11663 6.75829 5.37496 7.63329 5.37496H7.70829V5.34163C7.70829 4.99996 7.99163 4.71663 8.33329 4.71663C8.67496 4.71663 8.95829 4.99996 8.95829 5.34163V5.39163C9.88329 5.43329 10.625 6.20829 10.625 7.17496C10.625 7.51663 10.3416 7.79996 9.99996 7.79996C9.65829 7.79996 9.37496 7.51663 9.37496 7.17496C9.37496 6.87496 9.15829 6.63329 8.89163 6.63329H7.64163C7.44996 6.63329 7.29996 6.80829 7.29996 7.02496C7.29163 7.30829 7.34163 7.32496 7.54163 7.39163Z" fill="currentColor" />
</svg>