<svg width="1em" height="1em" viewBox="0 0 20 20" fill="none" xmlns="http://www.w3.org/2000/svg">
  <path d="M16.4238 5H7.47959C6.95113 5 6.44212 5.21599 6.08241 5.59312L1.80685 10.0707C1.71683 10.1645 1.66675 10.2882 1.66675 10.4167C1.66675 10.5451 1.71683 10.6688 1.80685 10.7627L6.08241 15.2395C6.26106 15.4267 6.47729 15.576 6.71766 15.6781C6.95803 15.7803 7.21738 15.8331 7.47959 15.8333H16.4238C16.9301 15.833 17.4156 15.6367 17.7737 15.2876C18.1317 14.9385 18.333 14.4651 18.3334 13.9714V6.86198C18.333 6.36826 18.1317 5.89487 17.7737 5.54576C17.4156 5.19665 16.9301 5.00036 16.4238 5ZM15.196 12.3254C15.3214 12.4569 15.3881 12.6316 15.3814 12.8111C15.3747 12.9906 15.2952 13.1601 15.1602 13.2824C15.0253 13.4047 14.8461 13.4697 14.6621 13.4632C14.478 13.4567 14.3041 13.3791 14.1787 13.2476L12.4308 11.4113L10.6823 13.2469C10.6203 13.3122 10.5458 13.365 10.4629 13.4022C10.38 13.4393 10.2904 13.4601 10.1992 13.4634C10.108 13.4667 10.017 13.4524 9.93154 13.4212C9.84606 13.3901 9.76772 13.3428 9.70105 13.2821C9.56613 13.1597 9.48654 12.9902 9.47977 12.8107C9.473 12.6312 9.5396 12.4564 9.66494 12.3247L11.4836 10.4167L9.66563 8.50797C9.54021 8.37643 9.47352 8.2017 9.48022 8.02222C9.48693 7.84274 9.56649 7.6732 9.70139 7.55091C9.8363 7.42862 10.0155 7.36359 10.1996 7.37013C10.3837 7.37667 10.5575 7.45424 10.683 7.58578L12.4315 9.42135L14.1801 7.58578C14.3075 7.46265 14.4789 7.39233 14.6583 7.38955C14.8377 7.38676 15.0112 7.45172 15.1426 7.57084C15.274 7.68996 15.3531 7.85401 15.3633 8.02867C15.3735 8.20332 15.3141 8.37507 15.1974 8.50797L13.378 10.4167L15.196 12.3254Z" fill="currentColor" />
</svg>