<svg width="1em" height="1em" viewBox="0 0 20 20" fill="none" xmlns="http://www.w3.org/2000/svg">
  <path fill-rule="evenodd" clip-rule="evenodd" d="M17.5 11.0683H2.5V8.93158H17.5V11.0683Z" fill="currentColor" />
  <path d="M7.29167 4.4444C7.29167 3.70769 7.57701 3.00115 8.08492 2.48022C8.59283 1.95928 9.28171 1.66663 10 1.66663C10.7183 1.66663 11.4072 1.95928 11.9151 2.48022C12.423 3.00115 12.7083 3.70769 12.7083 4.4444C12.7083 5.18112 12.423 5.88765 11.9151 6.40859C11.4072 6.92952 10.7183 7.22218 10 7.22218C9.28171 7.22218 8.59283 6.92952 8.08492 6.40859C7.57701 5.88765 7.29167 5.18112 7.29167 4.4444ZM7.29167 15.5555C7.29167 14.8188 7.57701 14.1123 8.08492 13.5913C8.59283 13.0704 9.28171 12.7777 10 12.7777C10.7183 12.7777 11.4072 13.0704 11.9151 13.5913C12.423 14.1123 12.7083 14.8188 12.7083 15.5555C12.7083 16.2922 12.423 16.9988 11.9151 17.5197C11.4072 18.0406 10.7183 18.3333 10 18.3333C9.28171 18.3333 8.59283 18.0406 8.08492 17.5197C7.57701 16.9988 7.29167 16.2922 7.29167 15.5555Z" fill="currentColor" />
</svg>