<svg width="1em" height="1em" viewBox="0 0 16 16" fill="none" xmlns="http://www.w3.org/2000/svg">
  <path d="M14.6666 5.20667V8.33334H11.9466C11.8666 8.32667 11.6933 8.22667 11.6533 8.15334L10.9599 6.84C10.6866 6.32 10.2133 6.02667 9.70658 6.05334C9.19992 6.08 8.76658 6.42 8.54658 6.97334L7.62658 9.28L7.49325 8.93334C7.16658 8.08667 6.23325 7.44667 5.31325 7.44667L1.33325 7.46667V5.20667C1.33325 2.78 2.77992 1.33334 5.20658 1.33334H10.7933C13.2199 1.33334 14.6666 2.78 14.6666 5.20667Z" fill="currentColor" />
  <path d="M14.6666 10.7933V9.33334H11.9466C11.4999 9.33334 10.9733 9.01334 10.7666 8.62L10.0733 7.30667C9.88658 6.95334 9.61992 6.97334 9.47325 7.34L7.93992 11.2133C7.77325 11.6467 7.49325 11.6467 7.31992 11.2133L6.55992 9.29333C6.37992 8.82667 5.81992 8.44667 5.31992 8.44667L1.33325 8.46667V10.7933C1.33325 13.18 2.73325 14.62 5.08659 14.66C5.15992 14.6667 5.23992 14.6667 5.31325 14.6667H10.6466C10.7466 14.6667 10.8466 14.6667 10.9399 14.66C13.2799 14.6067 14.6666 13.1733 14.6666 10.7933Z" fill="currentColor" />
</svg>