<svg width="1em" height="1em" viewBox="0 0 20 20" fill="none" xmlns="http://www.w3.org/2000/svg">
  <path d="M13.4916 1.66663H6.50829C3.47496 1.66663 1.66663 3.47496 1.66663 6.50829V13.4833C1.66663 16.525 3.47496 18.3333 6.50829 18.3333H13.4833C16.5166 18.3333 18.325 16.525 18.325 13.4916V6.50829C18.3333 3.47496 16.525 1.66663 13.4916 1.66663ZM14.0666 9.60829C14.0666 9.93329 13.8083 10.1916 13.4833 10.1916C13.1583 10.1916 12.9 9.93329 12.9 9.60829V9.45829L10.6333 11.725C10.5083 11.85 10.3416 11.9083 10.1666 11.8916C9.99163 11.875 9.83329 11.7833 9.74163 11.6333L8.89163 10.3666L6.90829 12.35C6.79163 12.4666 6.64996 12.5166 6.49996 12.5166C6.34996 12.5166 6.19996 12.4583 6.09163 12.35C5.86663 12.125 5.86663 11.7583 6.09163 11.525L8.57496 9.04163C8.69996 8.91663 8.86663 8.85829 9.04163 8.87496C9.21663 8.89163 9.37496 8.98329 9.46663 9.13329L10.3166 10.4L12.075 8.64163H11.925C11.6 8.64163 11.3416 8.38329 11.3416 8.05829C11.3416 7.73329 11.6 7.47496 11.925 7.47496H13.475C13.55 7.47496 13.625 7.49163 13.7 7.51663C13.8416 7.57496 13.9583 7.69163 14.0166 7.83329C14.05 7.90829 14.0583 7.98329 14.0583 8.05829V9.60829H14.0666Z" fill="currentColor" />
</svg>