<svg width="1em" height="1em" viewBox="0 0 20 20" fill="none" xmlns="http://www.w3.org/2000/svg">
  <path d="M6.37502 17.425C6.35002 17.425 6.31669 17.4416 6.29169 17.4416C4.67502 16.6416 3.35835 15.3166 2.55002 13.7C2.55002 13.675 2.56669 13.6416 2.56669 13.6166C3.58335 13.9166 4.63335 14.1416 5.67502 14.3166C5.85835 15.3666 6.07502 16.4083 6.37502 17.425Z" fill="currentColor" />
  <path d="M17.45 13.7083C16.625 15.3666 15.25 16.7083 13.575 17.5166C13.8917 16.4583 14.1584 15.3916 14.3334 14.3166C15.3834 14.1416 16.4167 13.9166 17.4334 13.6166C17.425 13.65 17.45 13.6833 17.45 13.7083Z" fill="currentColor" />
  <path d="M17.5167 6.42496C16.4667 6.10829 15.4084 5.84996 14.3334 5.66663C14.1584 4.59163 13.9 3.52496 13.575 2.48329C15.3 3.30829 16.6917 4.69996 17.5167 6.42496Z" fill="currentColor" />
  <path d="M6.37502 2.57496C6.07502 3.59163 5.85835 4.62496 5.68335 5.67496C4.60835 5.84163 3.54169 6.10829 2.48335 6.42496C3.29169 4.74996 4.63335 3.37496 6.29169 2.54996C6.31669 2.54996 6.35002 2.57496 6.37502 2.57496Z" fill="currentColor" />
  <path d="M12.9084 5.49163C10.975 5.27496 9.02502 5.27496 7.09169 5.49163C7.30002 4.34996 7.56669 3.20829 7.94169 2.10829C7.95835 2.04163 7.95002 1.99163 7.95835 1.92496C8.61669 1.76663 9.29169 1.66663 10 1.66663C10.7 1.66663 11.3834 1.76663 12.0334 1.92496C12.0417 1.99163 12.0417 2.04163 12.0584 2.10829C12.4334 3.21663 12.7 4.34996 12.9084 5.49163Z" fill="currentColor" />
  <path d="M5.49169 12.9083C4.34169 12.7 3.20835 12.4333 2.10835 12.0583C2.04169 12.0416 1.99169 12.05 1.92502 12.0416C1.76669 11.3833 1.66669 10.7083 1.66669 9.99996C1.66669 9.29996 1.76669 8.61663 1.92502 7.96663C1.99169 7.95829 2.04169 7.95829 2.10835 7.94163C3.21669 7.57496 4.34169 7.29996 5.49169 7.09163C5.28335 9.02496 5.28335 10.975 5.49169 12.9083Z" fill="currentColor" />
  <path d="M18.3334 9.99996C18.3334 10.7083 18.2334 11.3833 18.075 12.0416C18.0084 12.05 17.9584 12.0416 17.8917 12.0583C16.7834 12.425 15.65 12.7 14.5084 12.9083C14.725 10.975 14.725 9.02496 14.5084 7.09163C15.65 7.29996 16.7917 7.56663 17.8917 7.94163C17.9584 7.95829 18.0084 7.96663 18.075 7.96663C18.2334 8.62496 18.3334 9.29996 18.3334 9.99996Z" fill="currentColor" />
  <path d="M12.9084 14.5083C12.7 15.6583 12.4334 16.7916 12.0584 17.8916C12.0417 17.9583 12.0417 18.0083 12.0334 18.075C11.3834 18.2333 10.7 18.3333 10 18.3333C9.29169 18.3333 8.61669 18.2333 7.95835 18.075C7.95002 18.0083 7.95835 17.9583 7.94169 17.8916C7.57502 16.7833 7.30002 15.6583 7.09169 14.5083C8.05835 14.6166 9.02502 14.6916 10 14.6916C10.975 14.6916 11.95 14.6166 12.9084 14.5083Z" fill="currentColor" />
  <path d="M13.1361 13.1361C11.0519 13.399 8.94816 13.399 6.86391 13.1361C6.60095 11.0518 6.60095 8.9481 6.86391 6.86385C8.94816 6.60088 11.0519 6.60088 13.1361 6.86385C13.3991 8.9481 13.3991 11.0518 13.1361 13.1361Z" fill="currentColor" />
</svg>