<svg width="1em" height="1em" viewBox="0 0 20 20" fill="none" xmlns="http://www.w3.org/2000/svg">
  <path d="M14 1.66663H11.8333C9.16668 1.66663 7.50001 3.33329 7.50001 5.99996V9.37496H12.7083C13.05 9.37496 13.3333 9.65829 13.3333 9.99996C13.3333 10.3416 13.05 10.625 12.7083 10.625H7.50001V14C7.50001 16.6666 9.16668 18.3333 11.8333 18.3333H13.9917C16.6583 18.3333 18.325 16.6666 18.325 14V5.99996C18.3333 3.33329 16.6667 1.66663 14 1.66663Z" fill="currentColor" />
  <path d="M3.80001 9.37496L5.52501 7.64996C5.65001 7.52496 5.70835 7.36663 5.70835 7.20829C5.70835 7.04996 5.65001 6.88329 5.52501 6.76663C5.28335 6.52496 4.88335 6.52496 4.64168 6.76663L1.85001 9.55829C1.60835 9.79996 1.60835 10.2 1.85001 10.4416L4.64168 13.2333C4.88335 13.475 5.28335 13.475 5.52501 13.2333C5.76668 12.9916 5.76668 12.5916 5.52501 12.35L3.80001 10.625H7.50001V9.37496H3.80001Z" fill="currentColor" />
</svg>