<svg width="1em" height="1em" viewBox="0 0 20 20" fill="none" xmlns="http://www.w3.org/2000/svg">
  <path d="M13.825 6.17496L5.25838 14.7416C4.85838 15.1416 4.17504 15.05 3.93338 14.5416C3.50004 13.65 3.25004 12.6416 3.25004 11.5833C3.23338 6.98329 7.90004 3.04996 9.48338 1.84163C9.79171 1.60829 10.2084 1.60829 10.5084 1.84163C11.2334 2.39163 12.5917 3.53329 13.8667 5.03329C14.15 5.36663 14.1334 5.86663 13.825 6.17496Z" fill="currentColor" />
  <path d="M16.75 11.5916C16.75 15.3083 13.725 18.3333 10 18.3333C8.50838 18.3333 7.11671 17.85 5.99171 17.0166C5.58338 16.7166 5.55004 16.1166 5.90838 15.7583L14.3 7.36663C14.6917 6.97496 15.35 7.05829 15.6167 7.54163C16.3 8.79996 16.7584 10.1666 16.75 11.5916Z" fill="currentColor" />
</svg>