<svg width="1em" height="1em" viewBox="0 0 20 20" fill="none" xmlns="http://www.w3.org/2000/svg">
  <path d="M4.78338 13.3333C4.87505 12.925 4.70838 12.3416 4.41671 12.05L2.39171 10.025C1.75838 9.39163 1.50838 8.71663 1.69171 8.13329C1.88338 7.54996 2.47505 7.14996 3.35838 6.99996L5.95838 6.56663C6.33338 6.49996 6.79171 6.16663 6.96671 5.82496L8.40004 2.94996C8.81671 2.12496 9.38338 1.66663 10 1.66663C10.6167 1.66663 11.1834 2.12496 11.6 2.94996L13.0334 5.82496C13.1417 6.04163 13.3667 6.24996 13.6084 6.39163L4.63338 15.3666C4.51671 15.4833 4.31671 15.375 4.35005 15.2083L4.78338 13.3333Z" fill="currentColor" />
  <path d="M15.5834 12.05C15.2834 12.35 15.1167 12.925 15.2167 13.3333L15.7917 15.8416C16.0334 16.8833 15.8834 17.6666 15.3667 18.0416C15.1584 18.1916 14.9084 18.2666 14.6167 18.2666C14.1917 18.2666 13.6917 18.1083 13.1417 17.7833L10.7 16.3333C10.3167 16.1083 9.68338 16.1083 9.30005 16.3333L6.85838 17.7833C5.93338 18.325 5.14171 18.4166 4.63338 18.0416C4.44171 17.9 4.30005 17.7083 4.20838 17.4583L14.3417 7.32496C14.725 6.94163 15.2667 6.76662 15.7917 6.85829L16.6334 6.99996C17.5167 7.14996 18.1084 7.54996 18.3 8.13329C18.4834 8.71663 18.2334 9.39162 17.6 10.025L15.5834 12.05Z" fill="currentColor" />
</svg>