<svg width="1em" height="1em" viewBox="0 0 20 20" fill="none" xmlns="http://www.w3.org/2000/svg">
  <path d="M13.4917 1.66663H6.50835C3.47502 1.66663 1.66669 3.47496 1.66669 6.50829V13.4833C1.66669 16.525 3.47502 18.3333 6.50835 18.3333H13.4834C16.5167 18.3333 18.325 16.525 18.325 13.4916V6.50829C18.3334 3.47496 16.525 1.66663 13.4917 1.66663ZM8.25835 13.4916C8.25835 14.025 7.82502 14.4583 7.28335 14.4583C6.75002 14.4583 6.31669 14.025 6.31669 13.4916V10.775C6.31669 10.2416 6.75002 9.80829 7.28335 9.80829C7.82502 9.80829 8.25835 10.2416 8.25835 10.775V13.4916ZM13.6834 13.4916C13.6834 14.025 13.25 14.4583 12.7167 14.4583C12.175 14.4583 11.7417 14.025 11.7417 13.4916V6.50829C11.7417 5.97496 12.175 5.54163 12.7167 5.54163C13.25 5.54163 13.6834 5.97496 13.6834 6.50829V13.4916Z" fill="currentColor" />
</svg>