<svg width="1em" height="1em" viewBox="0 0 20 20" fill="none" xmlns="http://www.w3.org/2000/svg">
  <path d="M13.4917 1.66663H6.50835C3.47502 1.66663 1.66669 3.47496 1.66669 6.50829V13.4833C1.66669 16.525 3.47502 18.3333 6.50835 18.3333H13.4834C16.5167 18.3333 18.325 16.525 18.325 13.4916V6.50829C18.3334 3.47496 16.525 1.66663 13.4917 1.66663ZM6.35835 15.125C6.35835 15.4666 6.07502 15.75 5.73335 15.75C5.39169 15.75 5.10835 15.4666 5.10835 15.125V13.4C5.10835 13.0583 5.39169 12.775 5.73335 12.775C6.07502 12.775 6.35835 13.0583 6.35835 13.4V15.125ZM10.625 15.125C10.625 15.4666 10.3417 15.75 10 15.75C9.65835 15.75 9.37502 15.4666 9.37502 15.125V11.6666C9.37502 11.325 9.65835 11.0416 10 11.0416C10.3417 11.0416 10.625 11.325 10.625 11.6666V15.125ZM14.8917 15.125C14.8917 15.4666 14.6084 15.75 14.2667 15.75C13.925 15.75 13.6417 15.4666 13.6417 15.125V9.94163C13.6417 9.59996 13.925 9.31663 14.2667 9.31663C14.6084 9.31663 14.8917 9.59996 14.8917 9.94163V15.125ZM14.8917 7.30829C14.8917 7.64996 14.6084 7.93329 14.2667 7.93329C13.925 7.93329 13.6417 7.64996 13.6417 7.30829V6.49996C11.5167 8.68329 8.85835 10.225 5.88335 10.9666C5.83335 10.9833 5.78335 10.9833 5.73335 10.9833C5.45002 10.9833 5.20002 10.7916 5.12502 10.5083C5.04169 10.175 5.24169 9.83329 5.58335 9.74996C8.39169 9.04996 10.8917 7.57496 12.875 5.49163H11.8334C11.4917 5.49163 11.2084 5.20829 11.2084 4.86663C11.2084 4.52496 11.4917 4.24163 11.8334 4.24163H14.275C14.3084 4.24163 14.3334 4.25829 14.3667 4.25829C14.4084 4.26663 14.45 4.26663 14.4917 4.28329C14.5334 4.29996 14.5667 4.32496 14.6084 4.34996C14.6334 4.36663 14.6584 4.37496 14.6834 4.39163C14.6917 4.39996 14.6917 4.40829 14.7 4.40829C14.7334 4.44163 14.7584 4.47496 14.7834 4.50829C14.8084 4.54163 14.8334 4.56663 14.8417 4.59996C14.8584 4.63329 14.8584 4.66663 14.8667 4.70829C14.875 4.74996 14.8917 4.79163 14.8917 4.84163C14.8917 4.84996 14.9 4.85829 14.9 4.86663V7.30829H14.8917Z" fill="currentColor" />
</svg>