<svg width="92" height="92" viewBox="0 0 92 92" fill="none" xmlns="http://www.w3.org/2000/svg">
<rect width="92" height="92" rx="46" fill="#1E1E1E"/>
<path d="M84 46C84 55.6652 80.3171 64.9672 73.7008 72.0128C67.0845 79.0584 58.0322 83.3181 48.386 83.925L48.0043 77.857C56.107 77.3472 63.711 73.7691 69.2687 67.8507C74.8263 61.9324 77.92 54.1188 77.92 46H84Z" fill="#282828"/>
<path d="M46 84C36.3348 84 27.0328 80.3171 19.9872 73.7008C12.9416 67.0845 8.68187 58.0321 8.07498 48.386L14.143 48.0043C14.6528 56.107 18.2309 63.711 24.1493 69.2687C30.0676 74.8263 37.8812 77.92 46 77.92L46 84Z" fill="#80FFCC"/>
<path d="M8 46C8 36.3348 11.6829 27.0328 18.2992 19.9872C24.9155 12.9416 33.9678 8.68187 43.614 8.07498L43.9957 14.143C35.893 14.6528 28.289 18.2309 22.7313 24.1493C17.1737 30.0676 14.08 37.8812 14.08 46L8 46Z" fill="#80FFCC"/>
<path d="M46 8C55.6652 8 64.9672 11.6829 72.0128 18.2992C79.0584 24.9155 83.3181 33.9679 83.925 43.614L77.857 43.9957C77.3472 35.893 73.7691 28.289 67.8507 22.7313C61.9324 17.1737 54.1188 14.08 46 14.08L46 8Z" fill="#80FFCC"/>
</svg>
