<svg width="480" height="221" viewBox="0 0 480 221" fill="none" xmlns="http://www.w3.org/2000/svg">
<mask id="mask0_105_15203" style="mask-type:alpha" maskUnits="userSpaceOnUse" x="0" y="0" width="481" height="221">
<rect width="481" height="221" fill="url(#paint0_linear_105_15203)"/>
</mask>
<g mask="url(#mask0_105_15203)">
<g clip-path="url(#clip0_105_15203)">
<rect x="14.5044" y="72.2" width="1.22569" height="87" fill="#80FFCC"/>
<rect x="8.37598" y="89.6799" width="13" height="52.44" fill="#80FFCC"/>
</g>
<g clip-path="url(#clip1_105_15203)">
<rect x="41.4697" y="68.4" width="1.22569" height="144" fill="#F27B7B"/>
<rect x="35.3413" y="97.28" width="13" height="86.64" fill="#F27B7B"/>
</g>
<g clip-path="url(#clip2_105_15203)">
<rect x="68.4348" y="41.8" width="1.22569" height="61" fill="#80FFCC"/>
<rect x="62.3064" y="53.9601" width="13" height="36.48" fill="#80FFCC"/>
</g>
<g clip-path="url(#clip3_105_15203)">
<rect x="91.7231" width="1.83854" height="103" fill="#80FFCC"/>
<rect x="82.5305" y="20.52" width="20" height="61.56" fill="#80FFCC"/>
</g>
<g clip-path="url(#clip4_105_15203)">
<rect x="118.688" y="11.4" width="1.83854" height="19" fill="#80FFCC"/>
<rect x="109.496" y="15.2001" width="20" height="11.4" fill="#80FFCC"/>
</g>
<g clip-path="url(#clip5_105_15203)">
<rect x="145.654" width="1.83854" height="61" fill="#80FFCC"/>
<rect x="136.461" y="12.16" width="20" height="36.48" fill="#80FFCC"/>
</g>
<g clip-path="url(#clip6_105_15203)">
<rect x="169.554" y="11.4" width="1.22569" height="125" fill="#F27B7B"/>
<rect x="163.426" y="36.48" width="13" height="75.24" fill="#F27B7B"/>
</g>
<g clip-path="url(#clip7_105_15203)">
<rect x="196.52" y="98.8" width="1.22569" height="34" fill="#F27B7B"/>
<rect x="190.391" y="105.64" width="13" height="20.52" fill="#F27B7B"/>
</g>
<g clip-path="url(#clip8_105_15203)">
<rect x="223.485" y="106.4" width="1.22569" height="80" fill="#F27B7B"/>
<rect x="217.356" y="122.36" width="13" height="47.88" fill="#F27B7B"/>
</g>
<g clip-path="url(#clip9_105_15203)">
<rect x="250.45" y="79.8" width="1.22569" height="106" fill="#80FFCC"/>
<rect x="244.322" y="101.08" width="13" height="63.84" fill="#80FFCC"/>
</g>
<g clip-path="url(#clip10_105_15203)">
<rect x="273.738" y="68.4" width="1.83854" height="49" fill="#80FFCC"/>
<rect x="264.546" y="78.28" width="20" height="29.64" fill="#80FFCC"/>
</g>
<g clip-path="url(#clip11_105_15203)">
<rect x="300.703" y="22.8" width="1.83854" height="95" fill="#80FFCC"/>
<rect x="291.511" y="41.8" width="20" height="57" fill="#80FFCC"/>
</g>
<g clip-path="url(#clip12_105_15203)">
<rect x="327.668" y="34.2" width="1.83854" height="84" fill="#F27B7B"/>
<rect x="318.476" y="50.9199" width="20" height="50.16" fill="#F27B7B"/>
</g>
<g clip-path="url(#clip13_105_15203)">
<rect x="354.634" y="64.6" width="1.83854" height="156" fill="#F27B7B"/>
<rect x="345.441" y="95.76" width="20" height="93.48" fill="#F27B7B"/>
</g>
<g clip-path="url(#clip14_105_15203)">
<rect x="378.535" y="133" width="1.22569" height="65" fill="#80FFCC"/>
<rect x="372.406" y="145.92" width="13" height="38.76" fill="#80FFCC"/>
</g>
<g clip-path="url(#clip15_105_15203)">
<rect x="405.5" y="121.6" width="1.22569" height="30" fill="#80FFCC"/>
<rect x="399.372" y="127.68" width="13" height="18.24" fill="#80FFCC"/>
</g>
<g clip-path="url(#clip16_105_15203)">
<rect x="432.465" y="98.8" width="1.22569" height="30" fill="#80FFCC"/>
<rect x="426.337" y="104.88" width="13" height="18.24" fill="#80FFCC"/>
</g>
<g clip-path="url(#clip17_105_15203)">
<rect x="459.431" y="110.2" width="1.22569" height="19" fill="#80FFCC"/>
<rect x="453.302" y="114" width="13" height="11.4" fill="#80FFCC"/>
</g>
<g clip-path="url(#clip18_105_15203)">
<rect x="473.526" y="127.68" width="20" height="6.84" fill="#F27B7B"/>
</g>
<g filter="url(#filter0_f_105_15203)">
<circle cx="225.5" cy="148.5" r="16.5" fill="#80FFCC"/>
</g>
<g filter="url(#filter1_f_105_15203)">
<circle cx="302.5" cy="32.5" r="16.5" fill="#F27B7B"/>
</g>
<rect x="182" y="117" width="86" height="37" rx="8" fill="#80FFCC"/>
<path d="M191.986 141L196.424 131.2H197.81L202.262 141H200.792L196.83 131.984H197.39L193.428 141H191.986ZM193.876 138.55L194.254 137.43H199.77L200.176 138.55H193.876ZM206.513 141.084C205.879 141.084 205.319 140.967 204.833 140.734C204.357 140.501 203.984 140.146 203.713 139.67C203.452 139.185 203.321 138.578 203.321 137.85V133.58H204.665V137.696C204.665 138.424 204.838 138.97 205.183 139.334C205.538 139.698 206.033 139.88 206.667 139.88C207.134 139.88 207.54 139.787 207.885 139.6C208.231 139.404 208.497 139.124 208.683 138.76C208.87 138.387 208.963 137.939 208.963 137.416V133.58H210.307V141H209.033V138.998L209.243 139.53C209.001 140.025 208.637 140.407 208.151 140.678C207.666 140.949 207.12 141.084 206.513 141.084ZM215.414 141.084C214.667 141.084 214.088 140.883 213.678 140.482C213.267 140.081 213.062 139.507 213.062 138.76V131.956H214.406V138.704C214.406 139.105 214.504 139.413 214.7 139.628C214.905 139.843 215.194 139.95 215.568 139.95C215.988 139.95 216.338 139.833 216.618 139.6L217.038 140.566C216.832 140.743 216.585 140.874 216.296 140.958C216.016 141.042 215.722 141.084 215.414 141.084ZM211.802 134.686V133.58H216.534V134.686H211.802ZM221.595 141.084C220.848 141.084 220.185 140.921 219.607 140.594C219.028 140.267 218.571 139.819 218.235 139.25C217.899 138.671 217.731 138.018 217.731 137.29C217.731 136.553 217.899 135.899 218.235 135.33C218.571 134.761 219.028 134.317 219.607 134C220.185 133.673 220.848 133.51 221.595 133.51C222.332 133.51 222.99 133.673 223.569 134C224.157 134.317 224.614 134.761 224.941 135.33C225.277 135.89 225.445 136.543 225.445 137.29C225.445 138.027 225.277 138.681 224.941 139.25C224.614 139.819 224.157 140.267 223.569 140.594C222.99 140.921 222.332 141.084 221.595 141.084ZM221.595 139.908C222.071 139.908 222.495 139.801 222.869 139.586C223.251 139.371 223.55 139.068 223.765 138.676C223.979 138.275 224.087 137.813 224.087 137.29C224.087 136.758 223.979 136.301 223.765 135.918C223.55 135.526 223.251 135.223 222.869 135.008C222.495 134.793 222.071 134.686 221.595 134.686C221.119 134.686 220.694 134.793 220.321 135.008C219.947 135.223 219.649 135.526 219.425 135.918C219.201 136.301 219.089 136.758 219.089 137.29C219.089 137.813 219.201 138.275 219.425 138.676C219.649 139.068 219.947 139.371 220.321 139.586C220.694 139.801 221.119 139.908 221.595 139.908ZM231.259 141V131.2H235.655C236.784 131.2 237.652 131.429 238.259 131.886C238.866 132.334 239.169 132.95 239.169 133.734C239.169 134.266 239.048 134.714 238.805 135.078C238.572 135.442 238.254 135.722 237.853 135.918C237.452 136.114 237.018 136.212 236.551 136.212L236.803 135.792C237.363 135.792 237.858 135.89 238.287 136.086C238.716 136.282 239.057 136.571 239.309 136.954C239.561 137.327 239.687 137.794 239.687 138.354C239.687 139.194 239.37 139.847 238.735 140.314C238.11 140.771 237.176 141 235.935 141H231.259ZM232.659 139.866H235.879C236.654 139.866 237.246 139.735 237.657 139.474C238.068 139.213 238.273 138.802 238.273 138.242C238.273 137.673 238.068 137.257 237.657 136.996C237.246 136.735 236.654 136.604 235.879 136.604H232.533V135.47H235.529C236.238 135.47 236.789 135.339 237.181 135.078C237.573 134.817 237.769 134.425 237.769 133.902C237.769 133.379 237.573 132.987 237.181 132.726C236.789 132.465 236.238 132.334 235.529 132.334H232.659V139.866ZM244.781 141.084C244.146 141.084 243.586 140.967 243.101 140.734C242.625 140.501 242.251 140.146 241.981 139.67C241.719 139.185 241.589 138.578 241.589 137.85V133.58H242.933V137.696C242.933 138.424 243.105 138.97 243.451 139.334C243.805 139.698 244.3 139.88 244.935 139.88C245.401 139.88 245.807 139.787 246.153 139.6C246.498 139.404 246.764 139.124 246.951 138.76C247.137 138.387 247.231 137.939 247.231 137.416V133.58H248.575V141H247.301V138.998L247.511 139.53C247.268 140.025 246.904 140.407 246.419 140.678C245.933 140.949 245.387 141.084 244.781 141.084ZM251.442 143.8C251.087 143.8 250.742 143.739 250.406 143.618C250.07 143.506 249.78 143.338 249.538 143.114L250.112 142.106C250.298 142.283 250.504 142.419 250.728 142.512C250.952 142.605 251.19 142.652 251.442 142.652C251.768 142.652 252.039 142.568 252.254 142.4C252.468 142.232 252.669 141.933 252.856 141.504L253.318 140.482L253.458 140.314L256.37 133.58H257.686L254.088 141.742C253.873 142.265 253.63 142.675 253.36 142.974C253.098 143.273 252.809 143.483 252.492 143.604C252.174 143.735 251.824 143.8 251.442 143.8ZM253.206 141.238L249.818 133.58H251.218L254.102 140.188L253.206 141.238Z" fill="#0A774B"/>
<path d="M227.343 161.072C226.142 162.573 223.858 162.573 222.657 161.072L217 154L233 154L227.343 161.072Z" fill="#80FFCC"/>
<rect x="261" y="2" width="83" height="37" rx="8" fill="#F27B7B"/>
<path d="M270.986 26L275.424 16.2H276.81L281.262 26H279.792L275.83 16.984H276.39L272.428 26H270.986ZM272.876 23.55L273.254 22.43H278.77L279.176 23.55H272.876ZM285.513 26.084C284.879 26.084 284.319 25.9673 283.833 25.734C283.357 25.5007 282.984 25.146 282.713 24.67C282.452 24.1847 282.321 23.578 282.321 22.85V18.58H283.665V22.696C283.665 23.424 283.838 23.97 284.183 24.334C284.538 24.698 285.033 24.88 285.667 24.88C286.134 24.88 286.54 24.7867 286.885 24.6C287.231 24.404 287.497 24.124 287.683 23.76C287.87 23.3867 287.963 22.9387 287.963 22.416V18.58H289.307V26H288.033V23.998L288.243 24.53C288.001 25.0247 287.637 25.4073 287.151 25.678C286.666 25.9487 286.12 26.084 285.513 26.084ZM294.414 26.084C293.667 26.084 293.088 25.8833 292.678 25.482C292.267 25.0807 292.062 24.5067 292.062 23.76V16.956H293.406V23.704C293.406 24.1053 293.504 24.4133 293.7 24.628C293.905 24.8427 294.194 24.95 294.568 24.95C294.988 24.95 295.338 24.8333 295.618 24.6L296.038 25.566C295.832 25.7433 295.585 25.874 295.296 25.958C295.016 26.042 294.722 26.084 294.414 26.084ZM290.802 19.686V18.58H295.534V19.686H290.802ZM300.595 26.084C299.848 26.084 299.185 25.9207 298.607 25.594C298.028 25.2673 297.571 24.8193 297.235 24.25C296.899 23.6713 296.731 23.018 296.731 22.29C296.731 21.5527 296.899 20.8993 297.235 20.33C297.571 19.7607 298.028 19.3173 298.607 19C299.185 18.6733 299.848 18.51 300.595 18.51C301.332 18.51 301.99 18.6733 302.569 19C303.157 19.3173 303.614 19.7607 303.941 20.33C304.277 20.89 304.445 21.5433 304.445 22.29C304.445 23.0273 304.277 23.6807 303.941 24.25C303.614 24.8193 303.157 25.2673 302.569 25.594C301.99 25.9207 301.332 26.084 300.595 26.084ZM300.595 24.908C301.071 24.908 301.495 24.8007 301.869 24.586C302.251 24.3713 302.55 24.068 302.765 23.676C302.979 23.2747 303.087 22.8127 303.087 22.29C303.087 21.758 302.979 21.3007 302.765 20.918C302.55 20.526 302.251 20.2227 301.869 20.008C301.495 19.7933 301.071 19.686 300.595 19.686C300.119 19.686 299.694 19.7933 299.321 20.008C298.947 20.2227 298.649 20.526 298.425 20.918C298.201 21.3007 298.089 21.758 298.089 22.29C298.089 22.8127 298.201 23.2747 298.425 23.676C298.649 24.068 298.947 24.3713 299.321 24.586C299.694 24.8007 300.119 24.908 300.595 24.908ZM313.115 26.112C312.368 26.112 311.654 26 310.973 25.776C310.292 25.5427 309.755 25.244 309.363 24.88L309.881 23.788C310.254 24.1147 310.73 24.3853 311.309 24.6C311.888 24.8147 312.49 24.922 313.115 24.922C313.684 24.922 314.146 24.8567 314.501 24.726C314.856 24.5953 315.117 24.418 315.285 24.194C315.453 23.9607 315.537 23.6993 315.537 23.41C315.537 23.074 315.425 22.8033 315.201 22.598C314.986 22.3927 314.702 22.2293 314.347 22.108C314.002 21.9773 313.619 21.8653 313.199 21.772C312.779 21.6787 312.354 21.5713 311.925 21.45C311.505 21.3193 311.118 21.156 310.763 20.96C310.418 20.764 310.138 20.5027 309.923 20.176C309.708 19.84 309.601 19.4107 309.601 18.888C309.601 18.384 309.732 17.922 309.993 17.502C310.264 17.0727 310.674 16.732 311.225 16.48C311.785 16.2187 312.494 16.088 313.353 16.088C313.922 16.088 314.487 16.1627 315.047 16.312C315.607 16.4613 316.092 16.676 316.503 16.956L316.041 18.076C315.621 17.796 315.178 17.5953 314.711 17.474C314.244 17.3433 313.792 17.278 313.353 17.278C312.802 17.278 312.35 17.348 311.995 17.488C311.64 17.628 311.379 17.8147 311.211 18.048C311.052 18.2813 310.973 18.5427 310.973 18.832C310.973 19.1773 311.08 19.4527 311.295 19.658C311.519 19.8633 311.804 20.0267 312.149 20.148C312.504 20.2693 312.891 20.3813 313.311 20.484C313.731 20.5773 314.151 20.6847 314.571 20.806C315 20.9273 315.388 21.086 315.733 21.282C316.088 21.478 316.372 21.7393 316.587 22.066C316.802 22.3927 316.909 22.8127 316.909 23.326C316.909 23.8207 316.774 24.2827 316.503 24.712C316.232 25.132 315.812 25.4727 315.243 25.734C314.683 25.986 313.974 26.112 313.115 26.112ZM322.062 26.084C321.269 26.084 320.569 25.9207 319.962 25.594C319.365 25.2673 318.898 24.8193 318.562 24.25C318.236 23.6807 318.072 23.0273 318.072 22.29C318.072 21.5527 318.231 20.8993 318.548 20.33C318.875 19.7607 319.318 19.3173 319.878 19C320.448 18.6733 321.087 18.51 321.796 18.51C322.515 18.51 323.15 18.6687 323.7 18.986C324.251 19.3033 324.68 19.7513 324.988 20.33C325.306 20.8993 325.464 21.5667 325.464 22.332C325.464 22.388 325.46 22.4533 325.45 22.528C325.45 22.6027 325.446 22.6727 325.436 22.738H319.122V21.772H324.736L324.19 22.108C324.2 21.632 324.102 21.2073 323.896 20.834C323.691 20.4607 323.406 20.1713 323.042 19.966C322.688 19.7513 322.272 19.644 321.796 19.644C321.33 19.644 320.914 19.7513 320.55 19.966C320.186 20.1713 319.902 20.4653 319.696 20.848C319.491 21.2213 319.388 21.6507 319.388 22.136V22.36C319.388 22.8547 319.5 23.298 319.724 23.69C319.958 24.0727 320.28 24.3713 320.69 24.586C321.101 24.8007 321.572 24.908 322.104 24.908C322.543 24.908 322.94 24.8333 323.294 24.684C323.658 24.5347 323.976 24.3107 324.246 24.012L324.988 24.88C324.652 25.272 324.232 25.5707 323.728 25.776C323.234 25.9813 322.678 26.084 322.062 26.084ZM327.331 26V15.612H328.675V26H327.331ZM331.241 26V15.612H332.585V26H331.241Z" fill="#691717"/>
<path d="M304.343 46.0717C303.142 47.573 300.858 47.573 299.657 46.0717L294 39L310 39L304.343 46.0717Z" fill="#F27B7B"/>
</g>
<defs>
<filter id="filter0_f_105_15203" x="185" y="108" width="81" height="81" filterUnits="userSpaceOnUse" color-interpolation-filters="sRGB">
<feFlood flood-opacity="0" result="BackgroundImageFix"/>
<feBlend mode="normal" in="SourceGraphic" in2="BackgroundImageFix" result="shape"/>
<feGaussianBlur stdDeviation="12" result="effect1_foregroundBlur_105_15203"/>
</filter>
<filter id="filter1_f_105_15203" x="262" y="-8" width="81" height="81" filterUnits="userSpaceOnUse" color-interpolation-filters="sRGB">
<feFlood flood-opacity="0" result="BackgroundImageFix"/>
<feBlend mode="normal" in="SourceGraphic" in2="BackgroundImageFix" result="shape"/>
<feGaussianBlur stdDeviation="12" result="effect1_foregroundBlur_105_15203"/>
</filter>
<linearGradient id="paint0_linear_105_15203" x1="240.5" y1="0" x2="240.5" y2="221" gradientUnits="userSpaceOnUse">
<stop stop-color="#D9D9D9"/>
<stop offset="1" stop-color="#D9D9D9" stop-opacity="0"/>
</linearGradient>
<clipPath id="clip0_105_15203">
<path d="M8.37598 74.2C8.37598 73.0954 9.27141 72.2 10.376 72.2H19.8586C20.9632 72.2 21.8586 73.0954 21.8586 74.2V159.6H8.37598V74.2Z" fill="white"/>
</clipPath>
<clipPath id="clip1_105_15203">
<path d="M35.3413 70.4C35.3413 69.2955 36.2367 68.4 37.3413 68.4H46.8239C47.9285 68.4 48.8239 69.2955 48.8239 70.4V212.8H35.3413V70.4Z" fill="white"/>
</clipPath>
<clipPath id="clip2_105_15203">
<path d="M62.3064 43.8C62.3064 42.6955 63.2018 41.8 64.3064 41.8H73.789C74.8936 41.8 75.789 42.6955 75.789 43.8V102.6H62.3064V43.8Z" fill="white"/>
</clipPath>
<clipPath id="clip3_105_15203">
<path d="M82.5305 2C82.5305 0.895429 83.4259 0 84.5305 0H100.754C101.859 0 102.754 0.895431 102.754 2V102.6H82.5305V2Z" fill="white"/>
</clipPath>
<clipPath id="clip4_105_15203">
<path d="M109.496 13.4C109.496 12.2955 110.391 11.4 111.496 11.4H127.72C128.824 11.4 129.72 12.2955 129.72 13.4V30.4H109.496V13.4Z" fill="white"/>
</clipPath>
<clipPath id="clip5_105_15203">
<path d="M136.461 2C136.461 0.89543 137.356 0 138.461 0H154.685C155.789 0 156.685 0.895431 156.685 2V60.8H136.461V2Z" fill="white"/>
</clipPath>
<clipPath id="clip6_105_15203">
<path d="M163.426 13.4C163.426 12.2955 164.321 11.4 165.426 11.4H174.909C176.013 11.4 176.909 12.2955 176.909 13.4V136.8H163.426V13.4Z" fill="white"/>
</clipPath>
<clipPath id="clip7_105_15203">
<path d="M190.391 100.8C190.391 99.6955 191.287 98.8 192.391 98.8H201.874C202.979 98.8 203.874 99.6955 203.874 100.8V133H190.391V100.8Z" fill="white"/>
</clipPath>
<clipPath id="clip8_105_15203">
<path d="M217.356 108.4C217.356 107.295 218.252 106.4 219.356 106.4H228.839C229.944 106.4 230.839 107.295 230.839 108.4V186.2H217.356V108.4Z" fill="white"/>
</clipPath>
<clipPath id="clip9_105_15203">
<path d="M244.322 81.8001C244.322 80.6955 245.217 79.8 246.322 79.8H255.804C256.909 79.8 257.804 80.6955 257.804 81.8V186.2H244.322V81.8001Z" fill="white"/>
</clipPath>
<clipPath id="clip10_105_15203">
<path d="M264.546 70.4C264.546 69.2955 265.441 68.4 266.546 68.4H282.77C283.874 68.4 284.77 69.2955 284.77 70.4V117.8H264.546V70.4Z" fill="white"/>
</clipPath>
<clipPath id="clip11_105_15203">
<path d="M291.511 24.8001C291.511 23.6955 292.406 22.8 293.511 22.8H309.735C310.839 22.8 311.735 23.6955 311.735 24.8V117.8H291.511V24.8001Z" fill="white"/>
</clipPath>
<clipPath id="clip12_105_15203">
<path d="M318.476 36.1999C318.476 35.0954 319.371 34.2 320.476 34.2H336.7C337.804 34.2 338.7 35.0954 338.7 36.2V117.8H318.476V36.1999Z" fill="white"/>
</clipPath>
<clipPath id="clip13_105_15203">
<path d="M345.441 66.6C345.441 65.4954 346.337 64.6 347.441 64.6H363.665C364.77 64.6 365.665 65.4954 365.665 66.6V220.4H345.441V66.6Z" fill="white"/>
</clipPath>
<clipPath id="clip14_105_15203">
<path d="M372.406 135C372.406 133.895 373.302 133 374.406 133H383.889C384.994 133 385.889 133.895 385.889 135V197.6H372.406V135Z" fill="white"/>
</clipPath>
<clipPath id="clip15_105_15203">
<path d="M399.372 123.6C399.372 122.495 400.267 121.6 401.372 121.6H410.854C411.959 121.6 412.854 122.495 412.854 123.6V152H399.372V123.6Z" fill="white"/>
</clipPath>
<clipPath id="clip16_105_15203">
<path d="M426.337 100.8C426.337 99.6955 427.232 98.8 428.337 98.8H437.82C438.924 98.8 439.82 99.6955 439.82 100.8V129.2H426.337V100.8Z" fill="white"/>
</clipPath>
<clipPath id="clip17_105_15203">
<path d="M453.302 112.2C453.302 111.095 454.198 110.2 455.302 110.2H464.785C465.889 110.2 466.785 111.095 466.785 112.2V129.2H453.302V112.2Z" fill="white"/>
</clipPath>
<clipPath id="clip18_105_15203">
<path d="M473.526 127.4C473.526 126.295 474.422 125.4 475.526 125.4H491.75C492.855 125.4 493.75 126.295 493.75 127.4V136.8H473.526V127.4Z" fill="white"/>
</clipPath>
</defs>
</svg>
