<svg width="32" height="32" viewBox="0 0 32 32" fill="none" xmlns="http://www.w3.org/2000/svg">
<path fill-rule="evenodd" clip-rule="evenodd" d="M3.98144 5.35215C5.3846 5.31371 6.91802 5.34584 8.33178 5.34561L10.7425 5.34627C12.1269 5.34733 13.0908 5.29576 14.4277 5.72966C16.9447 6.54663 18.9146 8.24566 20.151 10.6993C21.2584 12.8974 21.497 15.7897 20.7839 18.1653C20.0376 20.6786 18.3757 22.7783 16.162 24.0047C13.9342 25.2108 12.6948 25.1356 10.2703 25.1345H6.45955C5.98793 25.6954 5.41197 26.2672 4.9154 26.8099C4.7119 27.0322 4.12671 27.6716 3.91684 27.8306C3.81372 27.909 3.69492 27.9613 3.56961 27.9839C2.47805 28.1753 2.68185 26.605 2.68159 25.9187L2.68324 9.79471L2.68007 7.7887C2.67611 6.61006 2.50237 5.44035 3.98144 5.35215ZM14.7649 7.2183C13.0475 8.30675 11.61 10.7296 11.1311 12.753C10.5087 15.367 10.9033 18.1344 12.2271 20.441C12.7353 21.3278 13.9669 22.8911 14.8758 23.3095C15.0191 23.2531 15.1377 23.2134 15.2691 23.1293C15.4606 22.9734 15.5298 22.9049 15.6955 22.7176C15.2197 22.2895 14.7713 21.8958 14.3472 21.4049C13.0495 19.9028 12.1909 18.0519 12.0324 16.0213C11.8319 13.4513 12.6047 11.2171 14.1855 9.26078C14.709 8.61298 15.0798 8.32641 15.6831 7.77107C15.4103 7.47143 15.1952 7.20709 14.7649 7.2183Z" fill="#80B3FF"/>
<path d="M19.3679 5.38451C21.0796 5.1662 23.0758 5.71079 24.5632 6.59027C29.0894 9.26668 30.6531 15.3639 28.129 20.1318C27.0997 22.0644 25.4817 23.5755 23.5362 24.4216C23.0707 24.6216 22.5729 24.7622 22.0887 24.9072C20.9325 25.191 19.5068 25.2023 18.343 24.9615C17.9937 24.8894 17.6183 24.757 17.2703 24.6562C19.0794 23.4846 20.4747 21.9373 21.3864 19.9038C22.5674 17.2909 22.7159 14.2916 21.799 11.5637C21.1448 9.63837 19.9982 7.94051 18.4855 6.65733C18.1343 6.35965 17.7216 6.03406 17.3137 5.83304C18.1203 5.53426 18.522 5.45028 19.3679 5.38451Z" fill="#80B3FF"/>
</svg>
