<svg width="32" height="32" viewBox="0 0 32 32" fill="none" xmlns="http://www.w3.org/2000/svg">
<path d="M6.23616 22.3155C5.80339 22.3155 5.4445 21.9573 5.4445 21.5253V15.52C5.39172 12.6649 6.45783 9.96778 8.44227 7.94495C10.4267 5.93265 13.0867 4.82642 15.9473 4.82642C21.7951 4.82642 26.5556 9.57796 26.5556 15.4147V21.4199C26.5556 21.8519 26.1967 22.2101 25.7639 22.2101C25.3312 22.2101 24.9723 21.8519 24.9723 21.4199V15.4147C24.9723 10.4524 20.9295 6.40675 15.9473 6.40675C13.5089 6.40675 11.2501 7.34442 9.57172 9.05118C7.88283 10.7685 6.98561 13.0547 7.02783 15.499V21.5148C7.02783 21.9573 6.6795 22.3155 6.23616 22.3155Z" fill="#80B3FF"/>
<path d="M9.60341 15.7834H9.46619C7.24952 15.7834 5.44452 17.585 5.44452 19.7975V21.7781C5.44452 23.9906 7.24952 25.7922 9.46619 25.7922H9.60341C11.8201 25.7922 13.6251 23.9906 13.6251 21.7781V19.7975C13.6251 17.585 11.8201 15.7834 9.60341 15.7834Z" fill="#80B3FF"/>
<path d="M22.5339 15.7834H22.3967C20.1801 15.7834 18.3751 17.585 18.3751 19.7975V21.7781C18.3751 23.9906 20.1801 25.7922 22.3967 25.7922H22.5339C24.7506 25.7922 26.5556 23.9906 26.5556 21.7781V19.7975C26.5556 17.585 24.7506 15.7834 22.5339 15.7834Z" fill="#80B3FF"/>
<path d="M6.52204 24.5203C6.60631 25.2118 6.95808 26.2176 7.33916 26.8415C8.1233 28.1278 9.27752 28.8241 10.6296 28.8241C10.7915 28.8241 10.9228 28.6929 10.9228 28.531V28.3696C10.9228 28.1169 10.7261 27.9079 10.4739 27.8925L10.4464 27.8908C9.7099 27.8425 9.2079 27.6394 8.65094 27.1558C7.95474 26.5561 7.47107 25.6518 7.24389 24.5444C7.2225 24.4315 7.12532 24.3488 7.01044 24.3457L6.85182 24.3413L6.6851 24.3391C6.58713 24.3377 6.5104 24.423 6.52204 24.5203Z" fill="#80B3FF"/>
<path d="M11.113 27.4599C10.8249 27.5608 10.6072 27.7686 10.4999 28.0388C10.4478 28.1694 10.4386 28.2496 10.4478 28.4277C10.4724 28.8048 10.6747 29.0958 11.0241 29.2561L11.1927 29.3333H12.8786L13.0472 29.2561C13.3966 29.0958 13.5989 28.8048 13.6234 28.4277C13.6449 28.0388 13.4579 27.7122 13.1054 27.5222L12.9399 27.4331L12.0816 27.4272C11.4318 27.4213 11.1958 27.4272 11.113 27.4599Z" fill="#80B3FF"/>
</svg>
